<svg width="34" height="23" viewBox="0 0 34 23" fill="none" xmlns="http://www.w3.org/2000/svg">
<path d="M17 17.9385C18.7257 17.9385 20.1901 17.3369 21.3933 16.1338C22.5964 14.9306 23.198 13.4662 23.198 11.7405C23.198 10.0148 22.5964 8.55044 21.3933 7.34731C20.1901 6.14419 18.7257 5.54262 17 5.54262C15.2743 5.54262 13.8099 6.14419 12.6068 7.34731C11.4037 8.55044 10.8021 10.0148 10.8021 11.7405C10.8021 13.4662 11.4037 14.9306 12.6068 16.1338C13.8099 17.3369 15.2743 17.9385 17 17.9385ZM17 15.8239C15.8577 15.8239 14.8915 15.4289 14.1016 14.639C13.3117 13.849 12.9167 12.8829 12.9167 11.7405C12.9167 10.5982 13.3117 9.63203 14.1016 8.8421C14.8915 8.05217 15.8577 7.65721 17 7.65721C18.1424 7.65721 19.1085 8.05217 19.8985 8.8421C20.6884 9.63203 21.0834 10.5982 21.0834 11.7405C21.0834 12.8829 20.6884 13.849 19.8985 14.639C19.1085 15.4289 18.1424 15.8239 17 15.8239ZM17 22.678C13.4514 22.678 10.2431 21.6694 7.37504 19.652C4.50698 17.6346 2.3681 14.9975 0.958374 11.7405C2.3681 8.4836 4.50698 5.84644 7.37504 3.82908C10.2431 1.81172 13.4514 0.80304 17 0.80304C20.5487 0.80304 23.757 1.81172 26.625 3.82908C29.4931 5.84644 31.632 8.4836 33.0417 11.7405C31.632 14.9975 29.4931 17.6346 26.625 19.652C23.757 21.6694 20.5487 22.678 17 22.678ZM17 20.4905C19.941 20.4905 22.645 19.6945 25.112 18.1025C27.579 16.5105 29.4566 14.3898 30.7448 11.7405C29.4566 9.09123 27.579 6.97057 25.112 5.37856C22.645 3.78655 19.941 2.99054 17 2.99054C14.0591 2.99054 11.3551 3.78655 8.88806 5.37856C6.42105 6.97057 4.53129 9.09123 3.21879 11.7405C4.53129 14.3898 6.42105 16.5105 8.88806 18.1025C11.3551 19.6945 14.0591 20.4905 17 20.4905Z" fill="#0000FF"/>
</svg>
