<svg width="28" height="28" viewBox="0 0 28 28" fill="none" xmlns="http://www.w3.org/2000/svg">
<path d="M2.25 25.7197H3.9L20.5125 9.10724L18.8625 7.45724L2.25 24.0697V25.7197ZM25.275 7.49474L20.475 2.69474L22.05 1.11974C22.475 0.694739 23 0.482239 23.625 0.482239C24.25 0.482239 24.775 0.694739 25.2 1.11974L26.85 2.76974C27.275 3.19474 27.4875 3.71974 27.4875 4.34474C27.4875 4.96974 27.275 5.49474 26.85 5.91974L25.275 7.49474ZM23.7 9.06974L4.8 27.9697H0V23.1697L18.9 4.26974L23.7 9.06974ZM19.6875 8.28224L18.8625 7.45724L20.5125 9.10724L19.6875 8.28224Z" fill="#FFAB00"/>
</svg>
