<svg width="23" height="27" viewBox="0 0 23 27" fill="none" xmlns="http://www.w3.org/2000/svg">
<path d="M3.74383 26.2197C3.15355 26.2197 2.65182 26.0131 2.23862 25.5999C1.82543 25.1867 1.61883 24.685 1.61883 24.0947V3.90723H0.166748V1.78223H6.82508V0.719727H16.1751V1.78223H22.8334V3.90723H21.3813V24.0947C21.3813 24.6614 21.1688 25.1572 20.7438 25.5822C20.3188 26.0072 19.823 26.2197 19.2563 26.2197H3.74383ZM19.2563 3.90723H3.74383V24.0947H19.2563V3.90723ZM7.498 21.0489H9.623V6.91764H7.498V21.0489ZM13.3772 21.0489H15.5022V6.91764H13.3772V21.0489ZM3.74383 3.90723V24.0947V3.90723Z" fill="#FF5630"/>
</svg>
